<?xml version="1.0" encoding="utf-8"?>
<!-- Generator: Adobe Illustrator 25.3.0, SVG Export Plug-In . SVG Version: 6.00 Build 0)  -->
<svg version="1.1" id="Layer_1" xmlns="http://www.w3.org/2000/svg" xmlns:xlink="http://www.w3.org/1999/xlink" x="0px" y="0px"
	 viewBox="0 0 2300 1100" style="enable-background:new 0 0 2300 1100;" xml:space="preserve">
<style type="text/css">
	.st0{fill:#D9A72A;}
	.st1{fill:#F0C04A;}
	.st2{fill:#8FB73A;}
	.st3{fill:#BA8D1E;}
	.st4{fill:#FFD878;}
	.st5{fill:#6A872A;}
	.st6{fill:#E6369F;}
	.st7{fill:#AED164;}
	.st8{fill:#BF2525;}
	.st9{fill:#D93D2A;}
	.st10{fill:#F04832;}
	.st11{fill:#F77261;}
	.st12{fill:#D6C48B;}
	.st13{fill:#E2D4A7;}
	.st14{fill:#ECE1C3;}
	.st15{fill:#00B2C5;}
	.st16{fill:#FFFCF5;}
	.st17{fill:#A4CC4B;}
	.st18{fill:#B4D66D;}
	.st19{enable-background:new    ;}
	.st20{fill:#FFD212;}
</style>
<g>
	<g id="BACKGROUND">
	</g>
	<g id="OBJECTS">
		<g>
			<g>
				<g id="XMLID_63_">
					<g id="XMLID_56_">
						<polygon id="XMLID_334_" class="st0" points="1282.6,846.1 1334.6,453.3 1047.3,530.7 1105.3,906.5 						"/>
					</g>
					<polygon id="XMLID_214_" class="st1" points="1334.6,453.4 1054.8,543.4 886.8,435.8 1148.1,392.3 1183.5,403.9 1230.9,419.4 
											"/>
					<path id="XMLID_328_" class="st2" d="M1230.9,860.1c9.8-126.1,6.3-262.1,1.2-388.8c1.2,0.3,2.4,0.6,3.6,0.9
						c-28-21.4-57.5-38.2-87.9-50.1l-65.4,25.9c30.4,11.9,67.1,30.5,95.1,51.9c-1.2-0.3-2.4-0.6-3.6-0.9
						c5.1,126.7,8.6,262.7-1.2,388.8L1230.9,860.1z"/>
					<path id="XMLID_69_" class="st2" d="M1230.9,419.4c-19.6,4.1-39.6,7.2-59,11.1c-13.5,2.7-28.2,4.1-41.3,8.3
						c-22.6,7.2-45.6-0.2-68.5-1.9c38.4-17.4,79.5-28.6,121.4-33.1L1230.9,419.4z"/>
					<polygon id="XMLID_322_" class="st3" points="886.8,435.8 966.6,828 1105.3,906.5 1047.3,530.7 					"/>
					<path id="XMLID_319_" class="st4" d="M909,448.1c12.1,3.5,22.3,14.7,33.7,21.5c16.7,10,34.6,17.1,51.6,25.9
						c13.3,6.8,26.5,13.8,39.8,21c6.1,3.3,12.3,5.4,16.9,11.6c81.9-19.5,163.1-48.4,245.4-63.2c1.1-0.2,1.1,2.1,0.2,2.6
						c-40.4,23.1-83.3,33.2-125.6,44.7c-38.7,10.5-77.6,19.9-116.2,31.2c2.8,19.3,4.3,39.4,7,58.8c3.4,24.8,6.9,49.7,10.4,74.5
						c6.6,47.1,13.3,94.6,17.4,142.3c0.2,2.3-2.1,2.6-2.6,0.5c-9.7-48.7-16.5-98.8-23.6-148.5c-3.3-23.2-6.6-46.5-9.9-69.7
						c-2.5-18-5.8-37.6-6.1-56.5c-3-1.1-4.6-5.9-4.3-10c-20.7-14.1-43.6-23.7-64.8-35.4c-12.8-7-25-15.8-37.6-23.1
						c-11.4-6.6-23.4-11.1-34.1-20.1C903.8,453.7,905.9,447.2,909,448.1z"/>
					<path id="XMLID_316_" class="st5" d="M1101.1,442.2c-24.5,5.4-44.4,19.4-68.8,24.9c-20.5,4.5-43.5,12.5-62,22.2
						c0.8-0.1-18.1-8.1-17.3-8.4c-13.5-5.4-12.2-11.4-25.8-16.9c38.4-9.6,80.3-23.4,119.4-29.6c9.7-1.5,19.6-3.1,29.3-1.9
						c9.8,1.2,19.6,5.4,25.3,13.4c-1-0.8-2.1-1.5-3.1-2.2"/>
					<path id="XMLID_313_" class="st5" d="M970,712.7c8.8,44,15.2,85,24.2,128.8c15.2,10.2,30.4,20.4,45.6,30.6
						c-3.5-2.6-6.8-37.1-7.9-43.6c-3-16.3-6-32.7-8.9-49c-6-32.7-11.9-65.4-17.9-98c-5.8-31.8-11.6-63.5-17.4-95.3
						c-3-16.3-6-32.7-8.9-49c-2-11.2-3.1-32.9-8-41.8c-9.7-17.5-30.4-16.1-43.6-23.7c4.8,19.8,5.3,36.1,8.2,56.3
						c2.8,19.8,6.8,39.3,10.2,58.9C952.9,629.3,961.7,671.1,970,712.7z"/>
					<path id="XMLID_312_" class="st6" d="M1172.2,337.9c-2.9,19-5.8,37.9-8.7,56.9"/>
					<path id="XMLID_309_" class="st5" d="M1122.9,316.6c-4.3,6.1-6.6,13.3-8.8,20.4c-10.6,34.7-17.7,70.5-21.3,106.6
						c4.4,2.7,10.4,0.8,14.1-2.8c3.7-3.6,5.5-8.7,7.2-13.5c12.2-34.3,24.5-68.6,36.7-102.9C1157.9,304.4,1132.3,303.2,1122.9,316.6z
						"/>
					<path id="XMLID_306_" class="st2" d="M1186.1,352c2.5-11.7,0.5-31.1-11.3-38c-5-2.9-14.1-3.9-19.8-5.1
						c-3.8-0.8-21.7,0.9-23.5-0.8c20.7,18.7,7.6,51.5,0.4,73.5s-19.8,40.9-28.6,61.9c14.4,6,42.2-22.3,50.8-31.5
						C1169.9,395.4,1181.3,374.5,1186.1,352z"/>
					<path id="XMLID_303_" class="st5" d="M1013,356.5c-3-11,8.1-14.7,16.9-13c14.9,2.8,28.8,13,38.9,23.9
						c12.5,13.4,21.4,29.8,28.6,46.6c4,9.3,7.4,20.4,2.2,29c-14.9-6.4-24.5-20.8-33-34.5c-8.5-13.8-17.5-28.4-31.9-35.7
						c-4.2-2.1-8.7-3.6-12.8-5.9C1018,364.5,1014.2,361.1,1013,356.5z"/>
					<path id="XMLID_300_" class="st2" d="M990.4,375.9c19.4,32.3,68.4,75.4,109.1,64.7c-8.6-13-25.9-19.5-37.2-30.1
						c-14.2-13.2-31.1-29.3-35.6-48.9c-1.5-6.7-0.4-14.4,4.4-19.3c-10.5-0.3-21.1,1.5-30.9,5.4c-6.1,2.4-12.6,6.4-14,12.8
						C984.9,365.8,987.6,371.2,990.4,375.9z"/>
					<path id="XMLID_288_" class="st5" d="M1055,432.6c7.4,0.8,14.7,3.1,22,4.6c8.1,1.6,16.3,2.7,24.4,3.8c1.8,0.3,1.4,3.3-0.4,3.2
						c-15.2-1-32.7-2.8-46.7-9C1053.1,434.6,1053.7,432.4,1055,432.6z"/>
					<polygon id="XMLID_44_" class="st4" points="1142,585 1130,581 1119.2,587.4 1119.3,574.8 1109.8,566.5 1121.9,562.7 
						1126.9,551.1 1134.2,561.4 1146.8,562.6 1139.2,572.7 					"/>
					<polygon id="XMLID_327_" class="st4" points="1181.5,692 1169.6,688 1158.7,694.4 1158.8,681.8 1149.3,673.5 1161.4,669.7 
						1166.4,658.1 1173.7,668.4 1186.3,669.6 1178.8,679.7 					"/>
					<polygon id="XMLID_351_" class="st4" points="1169,848.3 1157,844.3 1146.2,850.7 1146.3,838.1 1136.8,829.7 1148.8,826 
						1153.9,814.4 1161.2,824.7 1173.7,825.8 1166.2,836 					"/>
					<polygon id="XMLID_341_" class="st4" points="1127.2,737.7 1115.2,733.7 1104.3,740.1 1104.4,727.5 1095,719.2 1107,715.4 
						1112,703.8 1119.3,714.1 1131.9,715.2 1124.4,725.4 					"/>
					<polygon id="XMLID_278_" class="st0" points="1030.6,572.7 1021.7,567.2 1012.5,572.1 1014,559.6 1007.6,550.1 1017.4,547.9 
						1022.7,537.1 1027.2,548.3 1036.9,551.1 1029.9,560.1 					"/>
					<polygon id="XMLID_315_" class="st0" points="985.9,798.7 977,793.2 967.8,798.1 969.3,785.6 962.9,776.1 972.7,773.9 
						977.9,763.1 982.5,774.3 992.2,777.1 985.1,786.1 					"/>
					<polygon id="XMLID_263_" class="st0" points="1040.6,714.5 1031.7,709 1022.5,713.9 1024,701.4 1017.6,691.9 1027.4,689.7 
						1032.7,678.9 1037.2,690.1 1046.9,692.9 1039.9,701.9 					"/>
					<polygon id="XMLID_270_" class="st0" points="961.3,656.6 952.4,651 943.2,656 944.7,643.5 938.3,634 948.1,631.8 953.4,621 
						957.9,632.1 967.6,634.9 960.5,644 					"/>
					<polygon id="XMLID_281_" class="st0" points="1041.3,639.3 1037.4,636.9 1033.3,639.1 1034,633.6 1031.2,629.4 1035.5,628.4 
						1037.8,623.6 1039.8,628.6 1044.1,629.8 1041,633.8 					"/>
					<polygon id="XMLID_291_" class="st0" points="1022.2,657.8 1018.2,655.4 1014.2,657.6 1014.9,652.1 1012,647.9 1016.4,646.9 
						1018.7,642.1 1020.7,647.1 1024.9,648.3 1021.8,652.3 					"/>
					<polygon id="XMLID_324_" class="st0" points="1061,802.1 1057.1,799.7 1053.1,801.9 1053.8,796.3 1050.9,792.2 1055.2,791.2 
						1057.6,786.4 1059.6,791.3 1063.8,792.6 1060.7,796.6 					"/>
					<polygon id="XMLID_170_" class="st0" points="1061,749.9 1057.1,747.4 1053.1,749.6 1053.8,744.1 1050.9,739.9 1055.2,738.9 
						1057.6,734.2 1059.6,739.1 1063.8,740.3 1060.7,744.3 					"/>
					<polygon id="XMLID_320_" class="st0" points="961,706.5 957.1,704 953,706.2 953.7,700.7 950.8,696.5 955.2,695.6 957.5,690.8 
						959.5,695.7 963.8,696.9 960.7,700.9 					"/>
					<polygon id="XMLID_283_" class="st0" points="927.5,520.3 923.6,517.9 919.5,520.1 920.2,514.6 917.4,510.4 921.7,509.4 
						924,504.6 926,509.5 930.3,510.8 927.2,514.8 					"/>
					<polygon id="XMLID_286_" class="st0" points="1006.2,595.3 1002.3,592.8 998.2,595 998.9,589.5 996.1,585.3 1000.4,584.4 
						1002.7,579.6 1004.7,584.5 1009,585.8 1005.9,589.8 					"/>
					<polygon id="XMLID_297_" class="st0" points="930.9,577.1 926.9,574.7 922.9,576.9 923.6,571.4 920.7,567.2 925.1,566.2 
						927.4,561.4 929.4,566.3 933.6,567.6 930.5,571.6 					"/>
					<polygon id="XMLID_262_" class="st4" points="1095.8,501.2 1083.8,501.7 1074.2,509 1072.7,500.3 1062.5,497.2 1073.6,491.4 
						1076.8,482.2 1085.2,487.2 1097.4,484.7 1091.6,493.6 					"/>
					<polygon id="XMLID_265_" class="st4" points="1229.4,438.9 1221.3,439.3 1214.9,444.1 1213.9,438.4 1207,436.3 1214.4,432.4 
						1216.6,426.2 1222.2,429.6 1230.4,427.9 1226.5,433.8 					"/>
					<polygon id="XMLID_272_" class="st4" points="976.4,442.1 968.4,442.4 962,447.3 960.9,441.6 954.1,439.5 961.5,435.6 
						963.7,429.4 969.3,432.8 977.5,431.1 973.6,437 					"/>
					<polygon id="XMLID_267_" class="st4" points="1268.2,454.6 1263.4,454.8 1259.6,457.7 1259,454.2 1254.9,453 1259.3,450.7 
						1260.6,447 1264,449 1268.9,448 1266.5,451.5 					"/>
					<polygon id="XMLID_269_" class="st4" points="1087.6,462.9 1082.8,463.1 1079,466 1078.4,462.5 1074.3,461.3 1078.7,459 
						1080,455.3 1083.4,457.3 1088.3,456.3 1085.9,459.8 					"/>
					<polygon id="XMLID_161_" class="st4" points="1268.3,585 1256.3,581 1245.5,587.4 1245.6,574.8 1236.1,566.5 1248.2,562.7 
						1253.2,551.1 1260.5,561.4 1273.1,562.6 1265.5,572.7 					"/>
					<polygon id="XMLID_331_" class="st4" points="1291.9,692 1280,688 1269.1,694.4 1269.2,681.8 1259.7,673.5 1271.8,669.7 
						1276.8,658.1 1284.1,668.4 1296.7,669.6 1289.2,679.7 					"/>
					<polygon id="XMLID_345_" class="st4" points="1268,778.9 1256,774.8 1245.2,781.3 1245.3,768.6 1235.8,760.3 1247.9,756.5 
						1252.9,744.9 1260.2,755.2 1272.8,756.4 1265.3,766.5 					"/>
					<polygon id="XMLID_59_" class="st4" points="1259.5,518.1 1255.2,516.6 1251.4,518.9 1251.4,514.4 1248,511.5 1252.3,510.1 
						1254.1,506 1256.7,509.7 1261.1,510.1 1258.5,513.7 					"/>
					<polygon id="XMLID_338_" class="st4" points="1150,769.8 1145.8,768.3 1141.9,770.6 1142,766.1 1138.6,763.2 1142.9,761.8 
						1144.7,757.7 1147.3,761.4 1151.7,761.8 1149.1,765.4 					"/>
					<polygon id="XMLID_335_" class="st4" points="1305.2,598.3 1301,596.8 1297.1,599.1 1297.2,594.7 1293.8,591.7 1298.1,590.4 
						1299.9,586.2 1302.5,589.9 1306.9,590.3 1304.3,593.9 					"/>
					<polygon id="XMLID_359_" class="st4" points="1298.7,524.5 1294.4,523.1 1290.6,525.4 1290.6,520.9 1287.3,517.9 1291.5,516.6 
						1293.3,512.5 1295.9,516.1 1300.4,516.5 1297.7,520.1 					"/>
					<polygon id="XMLID_348_" class="st4" points="1266,637.1 1261.8,635.6 1257.9,637.9 1257.9,633.5 1254.6,630.5 1258.9,629.2 
						1260.6,625 1263.2,628.7 1267.7,629.1 1265,632.7 					"/>
					<polygon id="XMLID_356_" class="st4" points="1270.1,812.1 1265.9,810.7 1262,813 1262.1,808.5 1258.7,805.6 1263,804.2 
						1264.7,800.1 1267.3,803.8 1271.8,804.2 1269.1,807.8 					"/>
					<polygon id="XMLID_67_" class="st4" points="1131,631.4 1126.8,629.9 1122.9,632.2 1123,627.7 1119.6,624.8 1123.9,623.4 
						1125.6,619.3 1128.2,623 1132.7,623.4 1130,627 					"/>
					<polygon id="XMLID_344_" class="st4" points="1104.3,619.2 1100.1,617.8 1096.2,620 1096.3,615.6 1092.9,612.6 1097.2,611.3 
						1099,607.1 1101.6,610.8 1106,611.2 1103.3,614.8 					"/>
					<path id="XMLID_237_" class="st2" d="M971.4,480.8c-7-3.4-14-6.8-21-10.1c-6.3-3-12.8-7.3-19.7-8.4c-3.8-0.6-7.4,3.9-4.1,7
						c5.1,4.8,12.2,7.3,18.5,10.4c7,3.5,13.9,7,20.9,10.3C972.1,493,977.6,483.9,971.4,480.8z"/>
					<path id="XMLID_362_" class="st7" d="M1230.3,477.9c-13.8,4.1-27.7,7.9-41.4,12.2c-19.1,6.1-22.7,5.2-14.7,24.2
						c18.2-8,42.4-16.4,62.2-19C1238,495.1,1242.1,474.4,1230.3,477.9z"/>
					<path id="XMLID_363_" class="st7" d="M1179.2,361.1c-0.4-1.7-2.8-2.8-4.2-1.7c-5.6,4.3-6.9,10.7-10,16.9
						c-4.3,8.6-9.3,16.8-15.1,24.4c-5.4,7.2-11.6,13.8-18.2,19.8c-6.7,6.1-14.8,10.9-20.7,17.8c-1.6,1.8-0.1,4.9,2.4,4.2
						c17.3-4.6,32.8-22.1,43.5-35.6c5.6-7,10.7-14.5,14.9-22.4C1175.6,377.5,1181,369.3,1179.2,361.1z"/>
					<path id="XMLID_364_" class="st7" d="M1168.9,337.9c-1.8,0.1-3.9,1.6-3.7,3.7c0,0.3,0.1,0.5,0.1,0.8c0.2,1.9,1.5,3.7,3.6,3.6
						c2.1-0.1,3.4-1.6,3.6-3.6c0-0.3,0.1-0.5,0.1-0.8C1172.8,339.6,1170.8,337.8,1168.9,337.9z"/>
				</g>
				<g id="XMLID_42_">
					<path id="XMLID_258_" class="st8" d="M1446.7,713.3l-16.1,68.7v0l-3.2,13.5l-22,94l-3,12.7l-21.4,91.2l-74.2-16.7l-9.9-2.2
						l-69.3-15.6l-9.7-2.2c0,0,0,0,0,0l-37.2-8.3l-8.8-44.1l-1.5-7.6l-12-59.9l-1.5-7.6l-9.7-48.4l-1.2-5.7l-6.7-33.2l-1.6-8
						l-7.7-38.4l-1.5-7.4l-6.6-32.6l40.4,7.2l10.2,1.8l40.4,7.2l11,2c0,0,0,0,0,0l45,8l9.4,1.7l62.2,11l11.5,2l69.5,12.3l9.1,1.6
						L1446.7,713.3z"/>
					<path id="XMLID_68_" class="st9" d="M1172.4,664.6c-9.2,6.3-18.8,12.2-27.7,18.9c-5.1,3.9-10,8-14.9,12.1l-1.5-7.4
						c10.5-9.4,22.1-18.2,33.9-25.4L1172.4,664.6z"/>
					<path id="XMLID_70_" class="st9" d="M1223.8,673.7c-11.9,8.9-23.9,17.7-35.5,27c-16.7,13.4-32.7,27.7-49.2,41.4l-1.6-8
						c15.2-14,31.4-27,47.4-39.8c9.2-7.4,18.4-15,27.9-22.4L1223.8,673.7z"/>
					<path id="XMLID_46_" class="st9" d="M1278.2,683.4c-3.8,2.8-7.6,5.5-11.3,8.4c-14.4,10.9-28.9,21.8-43.3,32.7
						c-25.4,19-50.8,38-76.6,56.5l-1.2-5.7c23.3-18.2,46.9-36.1,70.5-53.9c14.4-10.9,28.9-21.8,43.4-32.6c3.1-2.3,6.1-4.6,9.2-7
						L1278.2,683.4z"/>
					<path id="XMLID_164_" class="st9" d="M1351.9,696.5c-10.2,6.5-20.5,12.7-30.1,19.3c-21.6,14.9-43,30.1-64.3,45.5
						c-33.7,24.5-66.7,49.8-99.4,75.6l-1.5-7.6c30-24.3,60.6-47.7,91.7-70.5c21.8-16,43.8-31.6,66.1-46.8
						c8.6-5.9,17.2-11.8,25.9-17.6L1351.9,696.5z"/>
					<path id="XMLID_45_" class="st9" d="M1430.5,710.4c-17.8,13.9-37.7,25.3-56.4,37.9c-20.1,13.5-39.9,27.3-59.5,41.5
						c-33.7,24.4-98.7,78-142.9,114.5l-1.5-7.6c42.4-36.3,103.4-86.8,135-110c20.7-15.2,41.6-30,62.9-44.2
						c17.3-11.6,34.7-24.1,53.2-33.7L1430.5,710.4z"/>
					<path id="XMLID_211_" class="st9" d="M1430.6,782l-3.2,13.5c-8.7,7.2-17.5,14.3-26.2,21.4c-18.2,14.9-36.5,29.7-54.8,44.5
						c-28.4,23.1-79.8,67-118.8,97.5l-9.7-2.2c38.6-33.5,95.9-79.2,126.5-104c18.9-15.3,37.8-30.7,56.7-45.9
						C1410.4,799.3,1420.2,789.9,1430.6,782z"/>
					<path id="XMLID_250_" class="st9" d="M1405.4,889.4l-3,12.7c-3.6,2.7-7.2,5.3-10.6,8c-11,8.8-22,17.5-33.2,26.2
						c-17.2,13.3-34.1,27.7-51.9,40.5l-9.9-2.2c19-16.6,39.9-31.4,59.7-46.9c10.7-8.4,21.6-16.7,32.4-25
						C1394.4,898.5,1399.8,893.7,1405.4,889.4z"/>
					<path id="XMLID_268_" class="st10" d="M1628.7,642.5l-184.8,70.8l-93.2-16.6c0,0,0,0,0,0l-23-4.1h0l-40.5-7.2h-0.1l-21.7-3.9
						c0,0,0,0,0,0l-52.2-9.3h0l-9.9-1.8l-29.3-5.2h0l-11.2-2l-43.5-7.7l89.5-29.8l41.6-13.9l83.2-27.7l43.1,8.5l22.9,4.5l44.7,8.8
						c0,0,0,0,0,0l26.9,5.3c0,0,0,0,0,0l41.2,8.2c0,0,0,0,0.1,0l27.6,5.4c0,0,0,0,0.1,0L1628.7,642.5z"/>
					<path id="XMLID_64_" class="st11" d="M1478.4,695.9c-22.3,3.5-44.7,4.2-67,7.3c-3.3,0.5-2.2,5.3,0.8,5.5
						c22.6,1.4,45.9-2.3,68.2-5.8C1485,702.2,1483,695.2,1478.4,695.9z"/>
					<path id="XMLID_178_" class="st11" d="M1524.5,678.8c-32.8,3.4-65.7,6.8-98.5,10.1c-16.4,1.7-32.8,3.3-49.3,4.9
						c-8.6,0.8-17.3,2-26,2.9c0,0,0,0,0,0l-23-4.1c15.2-3.6,31.2-4.1,46.7-5.7c16.4-1.7,32.9-3.3,49.3-4.9
						c33.6-3.3,67.3-6.6,100.9-9.9C1528.8,671.7,1528.8,678.4,1524.5,678.8z"/>
					<path id="XMLID_251_" class="st11" d="M1597.5,647.1c-54.5,8.7-109.8,13.8-164.5,20.5c-28,3.5-56,6.9-84.1,10.3
						c-20.4,2.5-41.2,5.9-61.9,7.5h-0.1l-21.7-3.9c26.4-6.6,54.4-8.5,81.3-11.9c27.2-3.4,54.5-6.8,81.7-10.2
						c55.9-6.9,112-15.7,168.1-20.6C1601.1,638.4,1602.2,646.3,1597.5,647.1z"/>
					<path id="XMLID_252_" class="st11" d="M1539.7,624.9c-55.8,4.4-111.4,10.6-166.8,18.9c-53.6,8-106.6,19.2-159.9,28.5h0
						l-9.9-1.8c0-1.1,0.6-2.2,2-2.5c55.6-15.1,113.4-24,170.4-32.4c45.4-6.7,90.9-12,136.7-16.1c0,0,0,0,0.1,0L1539.7,624.9z"/>
					<path id="XMLID_249_" class="st11" d="M1470.9,611.3c-24.4,4.7-49.6,6.8-74.1,10.7c-26.1,4.1-52,8.5-78,13.2
						c-26.7,4.9-53.3,10.2-79.8,15.8c-21.6,4.6-43.3,10.9-65.3,14.2h0l-11.2-2c0.1-1.2,0.8-2.3,2-2.7c25.2-9.3,52.9-13.5,79.1-19
						c25.8-5.4,51.7-10.5,77.6-15.3c26.7-4.9,53.4-9.4,80.3-13.5c14.1-2.2,28.3-4.8,42.5-6.8c0,0,0,0,0,0L1470.9,611.3z"/>
					<path id="XMLID_246_" class="st11" d="M1399.3,597.2c-34,5.5-68,11-102,16c-17.7,2.6-35.3,5.2-53.1,7.6
						c-11.5,1.6-23.8,4.2-35.8,5l41.6-13.9c15.8-2.2,31.6-4.5,47.4-6.9c26.3-3.9,52.7-8,79-12.3L1399.3,597.2z"/>
					<path id="XMLID_55_" class="st11" d="M1603,651.7c-13.7,2.6-25.3,11-38.1,16c-18.9,7.5-39.1,12.8-58.4,19.3
						c-15,5.1-30,10.3-44.9,15.7c-6.9,2.5-13.9,4-19.1,8.6c-92.6-14.6-184.5-36.1-277.5-47.1c-1.2-0.1-1.2,1.6-0.3,2
						c45.7,17.2,94.2,24.8,142.1,33.3c43.8,7.8,87.7,14.8,131.4,23.3c-3.2,14.4-4.9,29.4-7.9,43.8c-3.9,18.5-7.8,37-11.8,55.5
						c-7.4,35.1-15.1,70.5-19.6,106.1c-0.2,1.7,2.4,1.9,2.9,0.4c10.9-36.3,18.7-73.7,26.6-110.7c3.7-17.3,7.5-34.6,11.2-52
						c2.8-13.4,6.6-28,6.9-42.1c3.4-0.8,5.2-4.4,4.8-7.4c23.4-10.5,49.3-17.7,73.3-26.3c14.4-5.2,28.2-11.8,42.6-17.2
						c12.9-4.9,26.4-8.3,38.5-15C1608.9,655.8,1606.5,651.1,1603,651.7z"/>
					<path id="XMLID_58_" class="st12" d="M1239,961.8c-11.1-94-7.1-198.3-1.3-292.8c-1.3,0.2-2.7,0.5-4,0.7
						c31.7-16,65-28.5,99.4-37.3l65.8,20.6c-34.3,8.8-67.7,21.4-99.4,37.3c1.3-0.2,2.7-0.5,4-0.7c-5.8,94.5-9.7,192.8,1.3,286.8
						L1239,961.8z"/>
					<path id="XMLID_57_" class="st13" d="M1429.9,649.1c-25.8,1.8-51.9,10.2-77.4,2.1c-14.8-4.7-31.5-6.3-46.7-9.4
						c-30.8-6.2-62.8-10.5-93-18.9c17.4-11.6,46-14.1,66.3-12.5C1331.1,614.4,1382.4,627.6,1429.9,649.1z"/>
					<polygon id="XMLID_256_" class="st9" points="1628.1,642.5 1625.7,650.3 1623.1,658.8 1597,743.2 1594,753 1594,753 
						1568,837.1 1568,837.1 1564,850.2 1564,850.2 1537.9,934.8 1421.2,978.4 1410.1,982.5 1381,993.4 1446.7,713.3 					"/>
					<path id="XMLID_253_" class="st10" d="M1625.7,650.3l-2.6,8.5c-12.3,10.5-26.8,19-39.9,28.2c-16.5,11.6-33.1,23.2-49.6,34.8
						c-32.7,22.9-64.8,49.2-99.8,68.5c-2,1.1-4.3-1.7-2.5-3.2c29.1-25.4,63.5-46.1,95.1-68.3c16.5-11.6,33.1-23.2,49.6-34.8
						C1592.1,672.7,1608.1,659,1625.7,650.3z"/>
					<path id="XMLID_197_" class="st10" d="M1597,743.2l-3,9.8v0c-27.7,18.7-54.9,38.1-81.6,58.2c-34.3,25.9-66.5,54.7-100.8,80.6
						c-2.2,1.6-4.7-1.9-2.8-3.7c29.9-29.8,64.9-55.7,98.6-81.2C1536.6,784.9,1566.5,763.6,1597,743.2z"/>
					<path id="XMLID_248_" class="st10" d="M1568,837.1l-4.1,13.1v0c-3.9,2.9-8,5.7-11.7,8.7c-6.8,5.4-13.5,10.8-20.2,16.4
						c-13.3,11.1-26.5,22.4-39.4,34c-24.6,22.2-47.1,46.7-71.5,69.1l-11.1,4.2c-0.1-0.7,0.1-1.4,0.6-2.1
						c22.8-29.3,52.1-54.9,79.7-79.6c14-12.5,28.3-24.8,42.8-36.7C1544,855.4,1555.4,843.8,1568,837.1z"/>
					<path id="XMLID_54_" class="st14" d="M1385.8,655c27.7,6.1,55.3,12.3,83,18.4c23.2,5.1,48,3.2,68.9,14.2
						c-0.9-0.1-1.8-0.4-2.6-0.7c15.3-6.1,30.6-12.2,45.8-18.4c-43.5-10.8-89.2-15.3-133.5-22.3c-11-1.8-22.1-3.5-33.2-2.2
						s-22.1,6.1-28.6,15.2c1.2-0.8,2.3-1.7,3.5-2.5"/>
					<path id="XMLID_53_" class="st14" d="M1534,848.9c-10.2,32.7-17.4,65-27.6,97.7c-17.7,7.8-52.3,19.6-51.3,19.2
						c3.9-2,7.7-25.6,9-30.5c3.4-12.2,6.7-24.4,10.1-36.5c6.7-24.4,13.5-48.7,20.2-73.1c6.6-23.7,13.1-47.4,19.7-71
						c3.4-12.2,6.7-24.4,10.1-36.5c2.3-8.3,3.5-24.5,9.1-31.2c10.9-13,34.4-12,49.3-17.7c-5.5,14.7-6,26.9-9.3,42
						c-3.2,14.8-7.7,29.3-11.6,43.9C1553.5,786.7,1543.5,817.7,1534,848.9z"/>
					<path id="XMLID_52_" class="st15" d="M1305.4,537.1c3.3,21.5,6.6,42.9,9.9,64.3"/>
					<path id="XMLID_51_" class="st12" d="M1361.2,513c4.8,6.9,7.5,15,10,23.1c11.9,39.3,20,79.7,24.1,120.5c-5,3-11.8,1-15.9-3.2
						s-6.2-9.8-8.2-15.3c-13.8-38.8-27.7-77.6-41.5-116.4C1321.6,499.2,1350.5,497.8,1361.2,513z"/>
					<path id="XMLID_49_" class="st14" d="M1289.7,553.1c-2.8-13.2-0.6-35.1,12.8-43c5.6-3.3,15.9-4.4,22.4-5.7
						c4.3-0.9,24.5,1,26.6-0.9c-23.4,21.2-8.5,58.2-0.5,83.1s22.4,46.2,32.4,70c-16.3,6.7-47.7-25.2-57.5-35.6
						C1308,602.1,1295.1,578.5,1289.7,553.1z"/>
					<path id="XMLID_48_" class="st12" d="M1485.5,558.1c3.4-12.5-9.1-16.6-19.2-14.7c-16.9,3.2-32.6,14.7-44,27
						c-14.1,15.2-24.2,33.7-32.4,52.7c-4.5,10.5-8.3,23-2.6,32.8c16.8-7.2,27.7-23.5,37.3-39s19.8-32.1,36-40.4
						c4.7-2.4,9.8-4.1,14.5-6.7C1479.8,567.2,1484.1,563.3,1485.5,558.1z"/>
					<path id="XMLID_47_" class="st14" d="M1511,580.1c-21.9,36.5-77.3,85.3-123.3,73.2c9.7-14.6,29.3-22.1,42.1-34
						c16-14.9,35.1-33.1,40.2-55.3c1.7-7.6,0.5-16.3-4.9-21.9c11.9-0.4,23.8,1.7,34.9,6c6.9,2.7,14.2,7.2,15.8,14.5
						C1517.2,568.7,1514.2,574.8,1511,580.1z"/>
					<path id="XMLID_43_" class="st13" d="M1437.9,644.1c-8.4,1-16.6,3.5-24.8,5.2c-9.2,1.8-18.4,3-27.7,4.3c-2,0.3-1.6,3.7,0.5,3.6
						c17.1-1.1,37-3.2,52.8-10.1C1440.1,646.5,1439.4,644,1437.9,644.1z"/>
					<path id="XMLID_60_" class="st14" d="M1302.2,685.7c-8.7-4.6-19.2-5.7-28.8-7.9c-10.8-2.5-21.8-5.5-32.8-7.1
						c-4.4-0.6-6.3,5.4-1.9,6.9c10.6,3.5,21.6,5.7,32.4,8.3c9.6,2.3,19.5,6,29.4,5.8C1303.7,691.6,1305.1,687.2,1302.2,685.7z"/>
					<path id="XMLID_66_" class="st16" d="M1577.4,666c-7.8-0.1-14.4,6-21.8,8.5c-8.2,2.7-16.7,4.1-24.8,7c-2.6,1-2.4,5.2,0.7,5.1
						c8.7-0.2,17.6-3,25.9-5.7c4.1-1.3,8-3.2,12.1-4.4c5.1-1.5,6.9-0.7,10.3-4.8C1581.7,669.6,1580.5,666,1577.4,666z"/>
					<path id="XMLID_365_" class="st16" d="M1488,580.8c-9.6,18.2-22.2,31-37.6,44.3c-2.4,2.1,0.7,5.3,3.2,4.2
						c18.2-8.2,33.3-26.4,41.2-44.5C1496.7,580.3,1490.4,576.2,1488,580.8z"/>
					<path id="XMLID_366_" class="st16" d="M1494.4,560.8c-2.6,0-5.1,2.3-5,5c0.1,2.7,2.2,5,5,5c2.6,0,5.1-2.3,5-5
						C1499.3,563.1,1497.2,560.8,1494.4,560.8z"/>
					<path id="XMLID_368_" class="st16" d="M1343.9,583.3c-2.2-10.7-9.1-20.1-11.6-31c-2.7-12-2.3-24-1.7-36.1
						c0.2-2.8-4-3.2-4.8-0.6c-3.6,12-3.6,24.6-1.3,36.8c2,10.8,5.9,26.4,14.9,33.5C1341.6,587.4,1344.4,586,1343.9,583.3z"/>
				</g>
				<g id="XMLID_2_">
					<polygon id="XMLID_41_" class="st2" points="1067.7,972.1 1119.7,713.2 832.4,764.2 890.4,1011.9 					"/>
					<polygon id="XMLID_40_" class="st17" points="1122.2,713.2 932.7,650 671.4,701.6 834.8,764.2 					"/>
					<path id="XMLID_39_" class="st9" d="M1016,981.3c9.8-83.1,6.3-172.7,1.2-256.3c1.2,0.2,2.4,0.4,3.6,0.6
						c-28-14.1-57.5-25.2-87.9-33l-58.2,18.2c30.4,7.8,59.9,18.9,87.9,33c-1.2-0.2-2.4-0.4-3.6-0.6c5.1,83.5,8.6,173.2-1.2,256.3
						L1016,981.3z"/>
					<path id="XMLID_38_" class="st10" d="M847.2,707.4c22.8,1.6,45.9,9,68.5,1.9c13.1-4.2,27.8-5.6,41.3-8.3
						c27.2-5.5,55.5-9.3,82.2-16.7c-15.4-10.3-40.7-12.4-58.6-11.1C934.6,676.7,889.2,688.4,847.2,707.4z"/>
					<polygon id="XMLID_37_" class="st5" points="671.9,701.6 751.8,960.1 890.4,1011.9 832.4,764.2 					"/>
					<path id="XMLID_36_" class="st18" d="M694.2,709.7c12.1,2.3,22.3,9.7,33.7,14.2c16.7,6.6,34.6,11.3,51.6,17.1
						c13.3,4.5,26.5,9.1,39.8,13.8c6.1,2.2,12.3,3.5,16.9,7.6c81.9-12.9,163.1-31.9,245.4-41.7c1.1-0.1,1.1,1.4,0.2,1.7
						c-40.4,15.2-83.3,21.9-125.6,29.4c-38.7,6.9-77.6,13.1-116.2,20.6c2.8,12.7,4.3,26,7,38.7c3.5,16.4,6.9,32.7,10.4,49.1
						c6.6,31.1,13.3,62.3,17.4,93.8c0.2,1.5-2.1,1.7-2.5,0.3c-9.7-32.1-16.5-65.2-23.5-97.9c-3.3-15.3-6.6-30.6-9.9-46
						c-2.5-11.9-5.8-24.8-6.1-37.3c-3-0.7-4.6-3.9-4.3-6.6c-20.7-9.3-43.6-15.6-64.8-23.3c-12.8-4.6-25-10.4-37.6-15.2
						c-11.4-4.3-23.4-7.3-34.1-13.2C688.9,713.4,691,709.1,694.2,709.7z"/>
					<path id="XMLID_35_" class="st10" d="M886.2,712.6c-24.5,5.4-48.9,10.8-73.4,16.3c-20.5,4.5-42.4,2.8-60.9,12.5
						c0.8-0.1,1.5-0.3,2.3-0.6c-13.5-5.4-27-10.8-40.5-16.2c38.4-9.6,78.9-13.5,118.1-19.8c9.7-1.5,19.6-3.1,29.3-1.9
						c9.8,1.2,19.6,5.4,25.3,13.4c-1-0.8-2-1.5-3.1-2.2"/>
					<path id="XMLID_34_" class="st8" d="M755.1,884.1c8.8,29,15.2,56,24.2,84.9c15.2,6.7,30.4,13.5,45.6,20.2
						c-3.5-1.7-6.8-24.5-8-28.7c-3-10.8-6-21.5-8.9-32.3c-6-21.5-11.9-43.1-17.9-64.6c-5.8-20.9-11.6-41.9-17.4-62.8
						c-3-10.8-6-21.5-8.9-32.3c-2-7.4-3.1-21.7-8-27.6c-9.7-11.5-30.4-10.6-43.6-15.6c4.8,13,5.3,23.8,8.2,37.1
						c2.8,13.1,6.8,25.9,10.2,38.8C738,829.1,746.9,856.7,755.1,884.1z"/>
					<path id="XMLID_33_" class="st6" d="M957.3,608.4c-2.9,19-5.8,37.9-8.7,56.9"/>
					<path id="XMLID_32_" class="st8" d="M908,587.1c-4.3,6.1-6.6,13.3-8.8,20.4c-10.5,34.7-17.7,70.5-21.3,106.6
						c4.4,2.7,10.4,0.8,14.1-2.8c3.7-3.7,5.5-8.7,7.2-13.5c12.2-34.3,24.5-68.6,36.7-102.9C943,574.8,917.4,573.6,908,587.1z"/>
					<path id="XMLID_31_" class="st10" d="M971.2,622.5c2.5-11.7,0.5-31.1-11.3-38c-5-2.9-14.1-3.8-19.8-5.1
						c-3.8-0.8-21.7,0.9-23.5-0.8c20.7,18.7,7.5,51.5,0.4,73.5c-7.1,22-19.8,40.9-28.6,61.9c14.4,6,42.2-22.3,50.8-31.5
						C955,665.9,966.4,645,971.2,622.5z"/>
					<path id="XMLID_30_" class="st9" d="M798.1,627c-3-11,8.1-14.7,17-13c14.9,2.8,28.8,13,38.9,23.9
						c12.5,13.4,21.4,29.8,28.6,46.6c4,9.3,7.4,20.3,2.2,29c-14.9-6.4-24.5-20.8-33-34.5s-17.5-28.3-31.9-35.7
						c-4.2-2.2-8.7-3.6-12.8-5.9S799.3,631.5,798.1,627z"/>
					<path id="XMLID_29_" class="st10" d="M775.5,646.4c19.4,32.3,68.4,75.4,109.1,64.7c-8.6-13-25.9-19.5-37.2-30.1
						c-14.2-13.2-31.1-29.3-35.5-48.9c-1.5-6.7-0.4-14.4,4.4-19.3c-10.5-0.3-21.1,1.5-30.9,5.3c-6.1,2.4-12.6,6.4-14,12.8
						C770.1,636.3,772.7,641.7,775.5,646.4z"/>
					<path id="XMLID_28_" class="st8" d="M935.7,722.9c-8.8-2.8-17.8-4-26.9-3.9c-4.4,0.1-14.2-0.2-6.7-8.5c1.8-2,4.2-3.1,6.7-4.1
						c24-9.8,55.9-6.4,78.2,6.8c24.3,14.4,39.8,42.8,38.7,71c-0.4,10-2.6,19.9-2.8,29.9s2.2,20.7,9.4,27.6
						c-13.9-2.1-26.3-12.5-30.8-25.8c0.4,10.2,0.7,20.5,1.1,30.7c-12.7-0.6-22.9-11.8-26.8-24c-3.8-12.2-2.8-25.2-2.3-38
						c0.5-12.7,0.3-26.1-5.7-37.4C961.3,735.1,948.8,727,935.7,722.9z"/>
					<path id="XMLID_27_" class="st10" d="M938,716.3c-9-2.1-18.1-2.7-27.1-1.9c-4.4,0.4-14.1,0.8-7.3-8c1.6-2.1,4-3.4,6.3-4.6
						c23.2-11.5,55.3-10.6,78.5,0.9c25.4,12.6,42.9,39.7,43.9,68c0.4,10-1.2,20-0.6,30s3.7,20.5,11.4,26.9
						c-14-1.1-27.1-10.5-32.6-23.5c1.1,10.2,2.3,20.3,3.4,30.5c-12.8,0.4-23.7-10-28.5-21.9s-4.7-25-5.2-37.7
						c-0.5-12.7-1.7-26-8.5-36.8C964.5,726.6,951.4,719.5,938,716.3z"/>
					<path id="XMLID_26_" class="st9" d="M889,708.8c12.2-9.5,28.8-17.4,45.7-20.2c1.2-0.6,2.3-1.2,3.4-2c3.7-2.4,6.8-5.4,9.9-8.5
						c1.1-1.1,3.1,0.4,2.2,1.7c-2,2.8-4.5,5.5-7.4,7.9c11.4-0.7,22.5,1.1,32.2,6.5c1.5,0.8,0.5,3.5-1.2,2.9
						c-14.7-5.3-29.2-6.5-44.4-2.3c-7.3,2-14.3,4.9-21,8.4c-5.8,3-11.1,7.2-17.3,9.2C889.2,712.9,887.4,710.1,889,708.8z"/>
					<path id="XMLID_25_" class="st8" d="M840.2,703c7.4,0.8,14.7,3.1,22,4.6c8.1,1.6,16.3,2.7,24.5,3.8c1.8,0.3,1.4,3.3-0.4,3.2
						c-15.2-1-32.7-2.8-46.7-9C838.2,705.1,838.8,702.9,840.2,703z"/>
					<path id="XMLID_24_" class="st18" d="M903.9,814.9c-1.4-0.2-2.4,0.3-3.6,0.8c-3.4,1.5-3.4,7.4,0,8.9c1.2,0.5,2.2,1,3.6,0.8
						c2.7-0.3,5.4-2.2,5.3-5.3C909,817.1,906.8,815.3,903.9,814.9z"/>
					<path id="XMLID_23_" class="st18" d="M937.8,863.6c-2.5,0.1-5.2,2.2-5,5c0,0.2,0,0.3,0,0.5c0.2,2.6,2.1,5.1,5,5
						c2.9-0.1,4.8-2.2,5-5c0-0.2,0-0.3,0-0.5C943,866,940.3,863.5,937.8,863.6z"/>
					<path id="XMLID_22_" class="st18" d="M906.8,924.2c-4.9,0-4.9,7.7,0,7.7C911.8,931.8,911.8,924.2,906.8,924.2z"/>
					<path id="XMLID_21_" class="st18" d="M942.8,957.3c-7.2,0-7.2,11.2,0,11.2C950,968.5,950,957.3,942.8,957.3z"/>
					<path id="XMLID_20_" class="st18" d="M1050.9,940.4c-0.2-0.2-0.3-0.5-0.5-0.7c-1.8-2.9-6-2.9-7.9,0c-0.2,0.2-0.3,0.5-0.5,0.7
						c-2.1,3.3,0.6,7.7,4.4,7.7C1050.3,948,1053,943.7,1050.9,940.4z"/>
					<path id="XMLID_19_" class="st18" d="M1073.5,885.4c-6,0-6,9.3,0,9.3C1079.4,894.7,1079.4,885.4,1073.5,885.4z"/>
					<path id="XMLID_18_" class="st18" d="M1048.4,861c0.1,0,0.1,0.1,0.2,0.1c-2.5-3-7.3-0.4-7.3,3c0,3.5,4.9,6,7.3,3
						c-0.1,0-0.1,0.1-0.2,0.1C1050.7,866,1050.7,862.3,1048.4,861z"/>
					<path id="XMLID_17_" class="st18" d="M1077.5,786.3c-5.1,0-5.1,7.9,0,7.9C1082.6,794.3,1082.6,786.3,1077.5,786.3z"/>
					<path id="XMLID_16_" class="st18" d="M1053.1,770.9c-1.3-2.2-3.8-2.2-5.1,0c-1.1,1.9,0.3,4.4,2.5,4.4
						C1052.8,775.3,1054.2,772.8,1053.1,770.9z"/>
					<path id="XMLID_15_" class="st18" d="M803.7,791.8c-0.3-2.4-1.9-4.8-4.6-4.6c-2.8,0.1-4.3,2-4.6,4.6c-0.2,1.2,0.2,2.2,0.8,3.2
						c1.9,2.8,5.7,2.8,7.6,0C803.6,794,803.9,793,803.7,791.8z"/>
					<path id="XMLID_14_" class="st18" d="M825,841.4c-6.1,0-6.2,9.5,0,9.5C831.2,850.9,831.2,841.4,825,841.4z"/>
					<path id="XMLID_13_" class="st18" d="M822,905.4c-5.9,0-5.9,9.2,0,9.2C828,914.6,828,905.4,822,905.4z"/>
					<path id="XMLID_12_" class="st18" d="M851.4,977.2c-0.4-1.2-0.9-2-1.8-2.9c-1.6-1.4-3.6-1.4-5.2,0c-0.9,0.8-1.4,1.7-1.8,2.9
						c-0.9,2.9,1.5,5.8,4.4,5.8C849.9,983,852.3,980,851.4,977.2z"/>
					<path id="XMLID_11_" class="st18" d="M755.3,924.9c0-0.2-0.1-0.3-0.1-0.5c-0.8-4-7.1-4-8,0c0,0.2-0.1,0.3-0.1,0.5
						c-0.6,2.7,1.2,5.4,4.1,5.4C754,930.2,755.9,927.5,755.3,924.9z"/>
					<path id="XMLID_10_" class="st18" d="M712.3,788c-5.5,0-5.5,8.6,0,8.6C717.8,796.6,717.8,788,712.3,788z"/>
					<path id="XMLID_9_" class="st18" d="M937.8,772.2c-0.2,0-0.3,0-0.5,0c-5.4-0.3-5.4,8.6,0,8.3c0.2,0,0.3,0,0.5,0
						C943.1,780.2,943.1,772.5,937.8,772.2z"/>
					<path id="XMLID_8_" class="st18" d="M857,738.6c-2.5,0-4.9,2.2-4.8,4.8s2.1,4.8,4.8,4.8c2.5,0,4.9-2.2,4.8-4.8
						C861.6,740.8,859.6,738.6,857,738.6z"/>
					<path id="XMLID_7_" class="st18" d="M904.9,731.4c-3.9,0-3.9,6.1,0,6.1S908.8,731.4,904.9,731.4z"/>
					<path id="XMLID_6_" class="st18" d="M761.2,706.4c0-0.2-0.1-0.3-0.2-0.5c-1.3-3.8-6.4-3.8-7.7,0c0,0.2-0.1,0.3-0.2,0.5
						c-0.9,2.6,1.4,5.2,4,5.2C759.8,711.6,762.1,709,761.2,706.4z"/>
					<path id="XMLID_5_" class="st18" d="M792.6,691.2c-0.1-0.1-0.2-0.1-0.4-0.2c-2.7-1.5-6.2,0.4-6.2,3.6c0,3.2,3.5,5.1,6.2,3.6
						c0.1-0.1,0.2-0.1,0.4-0.2C795.1,696.5,795.1,692.6,792.6,691.2z"/>
					<path id="XMLID_4_" class="st18" d="M1017.9,700.5c-0.7-1.2-2.1-2-3.5-2c-0.2,0-0.4,0-0.6,0c-5.2,0.1-5.2,8,0,8.1
						c0.2,0,0.4,0,0.6,0c1.4,0,2.8-0.8,3.5-2C1018.7,703.2,1018.7,701.9,1017.9,700.5z"/>
					<path id="XMLID_3_" class="st18" d="M1055.6,708.7c0-0.2-0.1-0.6-0.2-1.2c0,0,0,0,0,0c-0.4-2.6-3.2-4.7-5.9-3.8
						c-0.8,0.3-1.3,0.9-2.1,1.2c0.7-0.6,0.7-0.6,0,0c-0.4,0.2-0.7,0.5-0.9,0.9c-1.2,1.6-1.2,3.3-0.9,5.2c0.5,2.7,3.9,4.4,6.3,3.6
						C1054.4,713.6,1056,711.3,1055.6,708.7z"/>
				</g>
				<g id="XMLID_61_">
					<polygon id="XMLID_218_" class="st12" points="1033.4,1050 997.2,870 1158.1,905.4 1156.6,1077.6 					"/>
					<polygon id="XMLID_215_" class="st14" points="995,869.5 1124.5,827.2 1270,860.3 1159,907.4 					"/>
					<path id="XMLID_212_" class="st3" d="M1066.6,1059.3c-6.8-57.8-4.4-121.9-0.8-180c-0.8,0.1-1.7,0.3-2.5,0.4
						c19.5-9.8,40-17.5,61.1-22.9l40.4,12.7c-21.1,5.4-41.6,13.1-61.1,22.9c0.8-0.1,1.7-0.3,2.5-0.4c-3.5,58.1-6,118.5,0.8,176.3
						L1066.6,1059.3z"/>
					<path id="XMLID_209_" class="st0" d="M1183.9,867.1c-15.9,1.1-31.9,6.3-47.6,1.3c-9.1-2.9-19.3-3.9-28.7-5.8
						c-18.9-3.8-38.6-6.5-57.2-11.6c10.7-7.2,28.3-8.7,40.7-7.7C1123.1,845.8,1154.7,853.8,1183.9,867.1z"/>
					<polygon id="XMLID_206_" class="st14" points="1269.6,860.3 1250.2,1042.7 1153.9,1078.7 1155.4,906.5 					"/>
					<polygon id="XMLID_111_" class="st1" points="1155.3,871.7 1197.4,889.5 1194.7,1063.5 1220.7,1053.8 1229.6,877 1173.5,862.6 
											"/>
					<path id="XMLID_196_" class="st15" d="M1107.4,798.2c2,13.2,4,26.4,6.1,39.6"/>
					<path id="XMLID_193_" class="st3" d="M1141.6,783.4c3,4.2,4.6,9.2,6.1,14.2c7.3,24.1,12.3,49,14.8,74.1c-3.1,1.9-7.2,0.6-9.8-2
						s-3.8-6-5-9.4c-8.5-23.8-17-47.7-25.5-71.5C1117.3,774.9,1135.1,774.1,1141.6,783.4z"/>
					<path id="XMLID_190_" class="st1" d="M1097.7,808c-1.7-8.1-0.4-21.6,7.9-26.4c3.4-2,9.8-2.7,13.8-3.5
						c2.7-0.6,15.1,0.6,16.3-0.5c-14.4,13-5.2,35.8-0.3,51.1s13.8,28.4,19.9,43c-10,4.1-29.3-15.5-35.3-21.9
						C1109,838.2,1101,823.7,1097.7,808z"/>
					<path id="XMLID_186_" class="st3" d="M1218.1,811.2c2.1-7.7-5.6-10.2-11.8-9c-10.4,2-20,9-27,16.6
						c-8.7,9.3-14.9,20.7-19.9,32.4c-2.8,6.5-5.1,14.2-1.6,20.2c10.3-4.4,17-14.4,22.9-24c5.9-9.6,12.2-19.7,22.2-24.8
						c2.9-1.5,6.1-2.5,8.9-4.1S1217.2,814.3,1218.1,811.2z"/>
					<path id="XMLID_182_" class="st1" d="M1233.7,824.7c-13.5,22.4-47.5,52.4-75.8,45c6-9,18-13.6,25.9-20.9
						c9.8-9.2,21.6-20.4,24.7-34c1.1-4.7,0.3-10-3-13.4c7.3-0.2,14.7,1,21.5,3.7c4.3,1.7,8.7,4.4,9.7,8.9
						C1237.5,817.6,1235.7,821.4,1233.7,824.7z"/>
					<path id="XMLID_179_" class="st3" d="M1122.4,877.8c6.1-1.9,12.4-2.8,18.7-2.7c3.1,0,9.8-0.2,4.7-5.9c-1.2-1.4-2.9-2.2-4.6-2.9
						c-16.7-6.8-38.9-4.5-54.3,4.7c-16.9,10-27.7,29.7-26.9,49.4c0.3,7,1.8,13.8,1.9,20.8s-1.5,14.4-6.5,19.2
						c9.7-1.5,18.3-8.7,21.4-18c-0.2,7.1-0.5,14.2-0.8,21.3c8.8-0.4,15.9-8.2,18.6-16.7c2.7-8.5,2-17.5,1.6-26.4s-0.2-18.1,3.9-26
						C1104.6,886.3,1113.2,880.7,1122.4,877.8z"/>
					<path id="XMLID_144_" class="st0" d="M1120.8,873.3c6.2-1.5,12.6-1.9,18.8-1.3c3.1,0.3,9.8,0.6,5.1-5.5
						c-1.1-1.5-2.8-2.4-4.4-3.2c-16.2-8-38.4-7.4-54.5,0.6c-17.6,8.8-29.8,27.6-30.5,47.2c-0.3,7,0.8,13.9,0.4,20.9
						s-2.6,14.2-7.9,18.7c9.8-0.8,18.9-7.3,22.7-16.3c-0.8,7.1-1.6,14.1-2.3,21.2c8.9,0.2,16.5-7,19.8-15.2
						c3.3-8.2,3.3-17.3,3.6-26.2s1.2-18.1,5.9-25.6C1102.4,880.4,1111.5,875.5,1120.8,873.3z"/>
					<path id="XMLID_65_" class="st0" d="M1154.8,868.1c-8.4-6.6-20-12.1-31.8-14c-0.8-0.4-1.6-0.9-2.4-1.3
						c-2.6-1.7-4.7-3.8-6.8-5.9c-0.7-0.8-2.1,0.2-1.5,1.2c1.4,1.9,3.2,3.8,5.2,5.5c-7.9-0.5-15.7,0.7-22.4,4.5
						c-1.1,0.6-0.3,2.4,0.8,2c10.2-3.7,20.3-4.5,30.9-1.6c5.1,1.4,9.9,3.4,14.6,5.8c4,2.1,7.7,5,12,6.4
						C1154.7,870.9,1156,869,1154.8,868.1z"/>
					<path id="XMLID_62_" class="st1" d="M1188.8,864c-5.2,0.6-10.2,2.2-15.3,3.2c-5.6,1.1-11.3,1.8-17,2.7c-1.2,0.2-1,2.3,0.3,2.2
						c10.5-0.7,22.8-2,32.5-6.2C1190.2,865.5,1189.7,863.9,1188.8,864z"/>
				</g>
				<path id="XMLID_372_" class="st4" d="M1221.1,824.5c-3.3,10.8-10,18.5-20.2,23.5c-2.5,1.2-0.7,5.4,1.9,4.5
					c11.6-4,21.1-14.4,23.8-26.5C1227.4,822.5,1222.2,821,1221.1,824.5z"/>
				<path id="XMLID_374_" class="st4" d="M1229.3,812.3c-0.1-0.1-0.2-0.3-0.4-0.4c-1-1-2.7-1-3.8,0c-0.1,0.1-0.3,0.3-0.4,0.4
					c-1.8,2-0.6,5.5,2.3,5.5S1231.2,814.3,1229.3,812.3z"/>
				<path id="XMLID_375_" class="st4" d="M1125.6,813.1c-2.2-6.4-3.8-13-5.7-19.5c-0.9-3-5.6-2.5-5.6,0.8c0.2,11.6,3.2,30.8,13.4,38
					c1.3,0.9,3-0.3,3.1-1.8C1130.9,824.5,1127.5,818.7,1125.6,813.1z"/>
				<path id="XMLID_376_" class="st4" d="M1116.7,781.4c-0.3,0-0.5,0-0.8,0c-2.8,0.2-2.8,4.3,0,4.4c0.3,0,0.5,0,0.8,0
					C1119.6,786.1,1119.6,781.3,1116.7,781.4z"/>
				<path id="XMLID_377_" class="st4" d="M1218.9,875.9c-4.7,2.1-9.5,4.1-14.2,6.2c-3.8,1.7-8.6,3-10.5,6.9
					c-0.6,1.2-0.1,2.6,1.2,3.1c4.2,1.3,8.4-1.2,12.3-2.8c4.8-2,9.5-4,14.3-6C1227.5,881.1,1224.4,873.5,1218.9,875.9z"/>
				<path id="XMLID_378_" class="st11" d="M966.6,601.2c-1-3.2-5.8-2.6-5.9,0.8c-0.4,22-2.9,40.3-16.3,58.6
					c-1.2,1.7,1.4,3.6,2.8,2.2C962.8,647.9,973.2,622.8,966.6,601.2z"/>
				<path id="XMLID_379_" class="st11" d="M954.9,590.7c-1-4.2-7.6-4.2-8.6,0c-0.2,0.6-0.3,1.3-0.2,2c0.2,2.3,1.9,4.6,4.5,4.5
					c2.7-0.1,4.2-2,4.5-4.5C955.2,592,955.1,591.4,954.9,590.7z"/>
				<path id="XMLID_380_" class="st11" d="M974.4,708.6c-3.1-0.7-4.7,3.3-2.1,5c9.7,6.7,18.9,12.7,25.3,22.8c6,9.4,7.5,19.7,10.7,30
					c0.7,2.1,3.9,2.3,4.5,0C1018.6,743.5,996.7,713.7,974.4,708.6z"/>
				<path id="XMLID_381_" class="st11" d="M826.6,672.8c-5.1-6.8-10.9-12.8-15-20.3c-4.1-7.4-4.9-16.4-9.2-23.5
					c-1.4-2.3-5.6-2.1-6.2,0.8c-1.7,8.7,3,18.4,7.1,25.9c4.4,8.3,10.6,16.6,18.8,21.4C824.8,678.7,828.6,675.5,826.6,672.8z"/>
			</g>
			<g>
				
					<image style="overflow:visible;opacity:0.75;" width="2283" height="280" xlink:href="47955D74.png"  transform="matrix(1 0 0 1 12 13)">
				</image>
				<g>
					<g>
						<g>
							<g class="st19">
								<path class="st20" d="M194.3,183c0,25-8.2,45.8-24.7,62.4c-16.5,16.6-37.3,24.9-62.2,24.9c-24.1,0-44.5-8.2-61.2-24.6
									c-16.8-16.5-25.2-36.8-25.2-60.8c0-24.1,8.6-44.2,25.7-60.3c16.8-15.7,37.2-23.5,61.4-23.5c18,0,34.8,5.3,50.2,15.8
									c16,10.9,26.4,24.8,31.3,41.8h-46.6c-7.9-14-19.8-21.1-35.9-21.1c-13,0-23.8,4.7-32.2,14c-8.2,9-12.2,20.1-12.2,33.3
									c0,13.8,4,25.2,11.9,34.4c8.4,9.7,19.3,14.5,32.8,14.5c9.4,0,17.5-2.1,24.3-6.3c7.3-4.6,12.2-11.2,14.6-19.9H97.5v-33.2
									h96.6c0.1,1.3,0.1,2.7,0.2,4.3V183z"/>
								<path class="st20" d="M215.8,267V104.1h41.6V267H215.8z"/>
								<path class="st20" d="M391.7,267l-7.9-23.5h-56.5l-8.6,23.5H274l65.3-162.9h32.8L436.8,267H391.7z M381.8,71.4
									c-0.9,1.4-1.9,2.8-3.1,4.2c-1,1.1-2.2,2.4-3.7,3.8l-3.7,3.4c-1.4,1.3-2.5,2.4-3.3,3.3c-2.2,2.5-3.4,4.9-3.5,7.3h-18.7
									c0-3.3,1-6.5,2.9-9.7c0.8-1.2,1.8-2.5,3-3.9c0.9-1,2-2.2,3.3-3.5l3.4-3.3c1.2-1.3,2.2-2.4,2.9-3.3c1.9-2.4,2.9-4.8,2.9-7
									c0-4.4-2.1-6.7-6.2-6.7c-3,0-5,1.1-6.1,3.2c-0.9,1.4-1.3,3.8-1.3,7.1H331c-0.1-0.3-0.1-0.6-0.1-1v-1
									c0-7.9,2.7-14.4,8.2-19.4c5.4-4.9,12.1-7.3,20.1-7.3c10.9,0,18.6,4.3,23.2,12.9c1.7,3.2,2.6,6.5,2.6,9.9
									C384.9,64.4,383.9,68,381.8,71.4z M356,154.8h-0.6l-16.8,55.6h34.2L356,154.8z"/>
								<path class="st20" d="M453.5,267V104.1h41.6V267H453.5z"/>
								<path class="st20" d="M683.3,267l-44.5-70.4h-0.4V267h-41.6V104.1h41.6v73.3h0.4l46-73.3h43.6l-53.9,81.2l57.4,81.6H683.3z"
									/>
								<path class="st20" d="M842.7,267v-65.1h-53.3V267h-41.6V104.1h41.6v61.2h53.3v-61.2h41.6V267H842.7z"/>
								<path class="st20" d="M1038.2,202.5c0,11.1-0.9,20.1-2.8,27c-2.5,8.8-7,16.5-13.4,23c-11.5,11.7-26.7,17.6-45.5,17.6
									c-9.2,0-17.6-1.3-25.4-4c-8.7-3-15.9-7.5-21.5-13.4c-6.9-7.2-11.5-15-13.8-23.2c-1-3.7-1.7-7.9-2.1-12.6
									c-0.3-3.7-0.4-8.5-0.4-14.4v-98.4h41.6v98.4c0,4.3,0.2,8,0.6,11.1c0.6,3.9,1.5,7.3,2.9,10c3.3,6.7,9.2,10,17.6,10
									c8.7,0,14.6-3.3,17.6-9.8c1.2-2.6,2.1-5.9,2.6-9.9c0.3-2.9,0.4-6.7,0.4-11.4v-98.4h41.6V202.5z"/>
								<path class="st20" d="M1144.6,207.8V267h-41.6v-59.2l-48.7-103.7h45.1l24.2,65.4l24.4-65.4h44.7L1144.6,207.8z"/>
								<path class="st20" d="M1264.3,89.9l-10.1-12.7l-10.1,12.7h-35.7l34.3-36.5h23.8l33,36.5H1264.3z M1209.5,267V104.1h90.4
									v36.5h-50.6V166h49.1v36.5h-49.1v27.9h50.6V267H1209.5z M1294.3,71.4L1284,49.8l52.7-28.4l11.7,26L1294.3,71.4z"/>
								<path class="st20" d="M1426.8,267l-62-99l-0.5,0.2l1.2,98.8h-39.9V104.1h35.9l62.9,102.4l0.4-0.4l-1.8-101.9h39.9V267
									H1426.8z"/>
								<path class="st20" d="M1651.3,267l-44.5-70.4h-0.4V267h-41.6V104.1h41.6v73.3h0.4l46-73.3h43.6l-53.9,81.2l57.4,81.6H1651.3
									z"/>
								<path class="st20" d="M1810.8,267v-65.1h-53.3V267h-41.6V104.1h41.6v61.2h53.3v-61.2h41.6V267H1810.8z"/>
								<path class="st20" d="M1890.5,96.3l-10.3-21.6l52.9-28.4l11.6,26L1890.5,96.3z M1881.7,267V104.1h41.6V267H1881.7z"/>
								<path class="st20" d="M2114.2,206.1c-4.7,19.1-14.7,34.6-30,46.4c-15.1,11.7-32.5,17.6-52.3,17.6c-23.8,0-44-8.2-60.7-24.5
									c-16.8-16.4-25.1-36.5-25.1-60.3c0-23.7,8.3-43.7,24.9-60c16.5-16.1,36.7-24.2,60.5-24.2c30.9,0,54.8,12.7,71.7,38.2
									c5.9,8.8,9.6,17.7,11.1,26.6h-43.6c-7.2-18.9-20.3-28.4-39.3-28.4c-12.8,0-23.4,4.8-31.7,14.3c-7.9,9.2-11.9,20.2-11.9,33.2
									c0,13.1,4,24.3,11.9,33.6c8.4,9.9,19,14.8,31.9,14.8c17.8,0,30.8-9.2,39.1-27.5H2114.2z"/>
								<path class="st20" d="M2230.6,267v-65.1h-53.3V267h-41.6V104.1h41.6v61.2h53.3v-61.2h41.6V267H2230.6z"/>
							</g>
						</g>
					</g>
				</g>
			</g>
		</g>
	</g>
	<g id="DESIGNED_BY_FREEPIK">
	</g>
</g>
</svg>
