<svg xmlns="http://www.w3.org/2000/svg" viewBox="0 0 235.54 45"><defs><style>.cls-1,.cls-5{fill:#af1e40;}.cls-2,.cls-3{fill:#fff;}.cls-2,.cls-3,.cls-4,.cls-5,.cls-6{fill-rule:evenodd;}.cls-3{stroke:#bbbdbf;}.cls-3,.cls-6{stroke-miterlimit:22.93;stroke-width:0.16px;}.cls-4{fill:#053f2b;}.cls-6{fill:#fbdc00;stroke:#9b242b;}</style></defs><g id="Layer_2" data-name="Layer 2"><g id="Layer_1-2" data-name="Layer 1"><rect class="cls-1" width="235.54" height="45"/><path class="cls-2" d="M142.58,25A7.56,7.56,0,0,1,146,26.44a4.18,4.18,0,0,1,1.57,3.28,4.59,4.59,0,0,1-1,2.83,5.85,5.85,0,0,1-2.85,2,17.91,17.91,0,0,1-5.52.63H127.78V34.6h.83a2.34,2.34,0,0,0,2-.78,4.19,4.19,0,0,0,.37-2.18V18.84a3.62,3.62,0,0,0-.47-2.32,2.52,2.52,0,0,0-1.88-.65h-.83v-.54h9.51a21.12,21.12,0,0,1,4.27.35,7.05,7.05,0,0,1,3.71,1.87,4.29,4.29,0,0,1,1.29,3.07,4,4,0,0,1-1,2.67,6,6,0,0,1-3,1.74Zm-8.5-.78c.4.06.86.12,1.37.15s1.08.05,1.7.05a10.41,10.41,0,0,0,3.56-.46,3.77,3.77,0,0,0,1.82-1.41,3.59,3.59,0,0,0,.64-2.07,3.67,3.67,0,0,0-1.58-3A7.34,7.34,0,0,0,137,16.31a12.37,12.37,0,0,0-2.92.32v7.62Zm0,9.46a17.55,17.55,0,0,0,3.71.4,7.16,7.16,0,0,0,4.48-1.2A3.57,3.57,0,0,0,143.81,30a4,4,0,0,0-.69-2.22,4.65,4.65,0,0,0-2.28-1.68,10.69,10.69,0,0,0-3.89-.61c-.67,0-1.24,0-1.72,0a9.45,9.45,0,0,0-1.15.1Z"/><path class="cls-2" d="M164.6,28.51h-8.52l-1.49,3.13a4.51,4.51,0,0,0-.55,1.72,1,1,0,0,0,.48.8,4.45,4.45,0,0,0,2.07.44v.55h-6.93V34.6a3.81,3.81,0,0,0,1.78-.57,8.69,8.69,0,0,0,1.84-2.84L161,14.88h.57l7.66,16.48a7.33,7.33,0,0,0,1.68,2.58,3.69,3.69,0,0,0,2.1.66v.55h-8.69V34.6a3.5,3.5,0,0,0,1.78-.39,1,1,0,0,0,.46-.82,5.47,5.47,0,0,0-.65-2l-1.33-2.85Zm-.45-1.08-3.73-8-3.83,8Z"/><path class="cls-2" d="M173,15.33h6l13.46,14.86V18.77a3.54,3.54,0,0,0-.46-2.28,2.54,2.54,0,0,0-1.89-.62h-.77v-.54h7.66v.54h-.78a2.37,2.37,0,0,0-2,.76,4,4,0,0,0-.35,2.14v16.7h-.59l-14.51-16v12.2a3.72,3.72,0,0,0,.44,2.28,2.6,2.6,0,0,0,1.9.61h.78v.55h-7.66V34.6h.76a2.39,2.39,0,0,0,2-.75,4.18,4.18,0,0,0,.36-2.14V17.93a10.09,10.09,0,0,0-1.46-1.33,5.58,5.58,0,0,0-1.45-.59,5.52,5.52,0,0,0-1.43-.14Z"/><path class="cls-2" d="M207.34,24.16l8.11,7.26a14.58,14.58,0,0,0,3.41,2.45,8,8,0,0,0,2.82.73v.55H211.21V34.6a2.49,2.49,0,0,0,1.36-.28.77.77,0,0,0,.41-.64,1.26,1.26,0,0,0-.15-.62,5.34,5.34,0,0,0-1-1l-7.6-6.77v6.39a6,6,0,0,0,.21,2,1.39,1.39,0,0,0,.68.62,3.19,3.19,0,0,0,1.48.35h.75v.55H198V34.6h.78a2.5,2.5,0,0,0,2-.71,4.05,4.05,0,0,0,.39-2.25V18.84a6.07,6.07,0,0,0-.21-2,1.35,1.35,0,0,0-.67-.61,3.24,3.24,0,0,0-1.49-.36H198v-.54h9.39v.54h-.75a3.52,3.52,0,0,0-1.48.34,1.33,1.33,0,0,0-.7.7,6.43,6.43,0,0,0-.19,1.93V24.9l2.22-1.85a45.68,45.68,0,0,0,5.83-5.31,1.82,1.82,0,0,0,.44-1,.75.75,0,0,0-.34-.59,2,2,0,0,0-1.16-.26h-.5v-.54h8.08v.54a5.23,5.23,0,0,0-1.3.18,6.87,6.87,0,0,0-1.42.62A13.7,13.7,0,0,0,214,18.15q-.36.3-3.29,3Z"/><path class="cls-2" d="M66.81,35.15H57.88v-1a9.54,9.54,0,0,0,2-.27c.52-.14.78-.31.78-.52s0-.18,0-.31a3,3,0,0,0-.09-.32l-1.79-4.42H51.2c-.28.65-.51,1.21-.69,1.7s-.33.92-.47,1.33a7.94,7.94,0,0,0-.28,1,3.33,3.33,0,0,0-.07.62c0,.37.31.66,1,.86a7.73,7.73,0,0,0,2.15.36v1H44.72v-1a6.76,6.76,0,0,0,1-.16,3.23,3.23,0,0,0,1-.35,3.57,3.57,0,0,0,.93-.79,4.62,4.62,0,0,0,.65-1.13q1.62-3.72,3.57-8.35t3.47-8.26H56.5l7.16,17a3.19,3.19,0,0,0,.51.88,3.26,3.26,0,0,0,.8.65,3.5,3.5,0,0,0,.91.33,4.77,4.77,0,0,0,.93.14v1Zm-8.64-8.07-3.25-7.66-3.19,7.66Z"/><path class="cls-2" d="M88.28,27.26l-1,.13a3.9,3.9,0,0,0-1,.26,1.28,1.28,0,0,0-.64.59,2,2,0,0,0-.19.9v1.53c0,1.11,0,1.87,0,2.26s0,.7,0,1a25.05,25.05,0,0,1-4,1.28,18.4,18.4,0,0,1-3.92.44,11.1,11.1,0,0,1-4-.71,9.84,9.84,0,0,1-3.32-2,9.56,9.56,0,0,1-2.28-3.21,10.15,10.15,0,0,1-.85-4.23A10.72,10.72,0,0,1,68,21.25a9.81,9.81,0,0,1,2.29-3.34,10,10,0,0,1,3.42-2.17A11.71,11.71,0,0,1,78,15a10.94,10.94,0,0,1,3.16.4,12.17,12.17,0,0,1,2.38,1l.62-1h1.21l.13,6.91H84.26a18.14,18.14,0,0,0-.78-2.25,7.84,7.84,0,0,0-1.21-2,5.51,5.51,0,0,0-1.81-1.39,5.7,5.7,0,0,0-2.54-.53,6.56,6.56,0,0,0-2.89.61,6.11,6.11,0,0,0-2.21,1.8,8.09,8.09,0,0,0-1.42,2.88,14,14,0,0,0-.5,3.86,12.36,12.36,0,0,0,.49,3.54,8.68,8.68,0,0,0,1.43,2.87,6.69,6.69,0,0,0,2.34,1.95,7.06,7.06,0,0,0,3.19.71A7.47,7.47,0,0,0,80.78,34a4.46,4.46,0,0,0,1.55-.8,10.16,10.16,0,0,0,.13-1.46V29.4a2.75,2.75,0,0,0-.17-1,1.15,1.15,0,0,0-.72-.67,5.64,5.64,0,0,0-1.35-.31c-.57-.07-1-.11-1.34-.13v-1h9.4Z"/><path class="cls-2" d="M112.42,35.15h-5.78c-1.28-1.84-2.44-3.44-3.47-4.78S101,27.63,99.81,26.2H97.62v6.27a2,2,0,0,0,.16.85,1.14,1.14,0,0,0,.71.57,5.17,5.17,0,0,0,1,.17c.45.06.83.09,1.14.1v1H91.53v-1l1-.1a4,4,0,0,0,1-.17,1.25,1.25,0,0,0,.65-.53,1.72,1.72,0,0,0,.2-.89V18.19a2.34,2.34,0,0,0-.14-.87,1.09,1.09,0,0,0-.71-.57,6.81,6.81,0,0,0-1-.22,8.38,8.38,0,0,0-1-.14v-1h9.89a12.27,12.27,0,0,1,2.56.26,7.19,7.19,0,0,1,2.16.83,4.26,4.26,0,0,1,1.5,1.45,4,4,0,0,1,.55,2.17,5,5,0,0,1-.37,2,4.18,4.18,0,0,1-1.12,1.52,6.6,6.6,0,0,1-1.63,1,13.26,13.26,0,0,1-2.1.74c1.06,1.29,1.93,2.38,2.64,3.26s1.56,1.95,2.57,3.21a7.56,7.56,0,0,0,1.2,1.24,7.29,7.29,0,0,0,1.07.65,3.72,3.72,0,0,0,1,.27,7.24,7.24,0,0,0,1,.11v1Zm-8-14.72a3.71,3.71,0,0,0-1.12-2.85,4.41,4.41,0,0,0-3.15-1H97.62V25h2a5,5,0,0,0,3.47-1.24A4.22,4.22,0,0,0,104.46,20.43Z"/><path class="cls-2" d="M124.16,35.15h-9.65v-.89l1.17-.07a6.23,6.23,0,0,0,1.09-.15,1.48,1.48,0,0,0,.73-.45,1.19,1.19,0,0,0,.23-.78V18.33a5,5,0,0,0-.17-1.33,1.34,1.34,0,0,0-.79-.5,9.51,9.51,0,0,0-1.14-.28,9.31,9.31,0,0,0-1.12-.16v-.88h9.65v.88a10.54,10.54,0,0,0-1.11.1,8.84,8.84,0,0,0-1.14.2,1.28,1.28,0,0,0-.77.49,1.49,1.49,0,0,0-.19.75V32.67a1.33,1.33,0,0,0,.21.74,1.48,1.48,0,0,0,.75.5,7.89,7.89,0,0,0,1,.22,7.71,7.71,0,0,0,1.21.13Z"/><path class="cls-3" d="M38,9.17a1.35,1.35,0,0,0-1.35-1.34h-26A1.35,1.35,0,0,0,9.28,9.17V34.83a1.35,1.35,0,0,0,1.36,1.34h26A1.35,1.35,0,0,0,38,34.83Z"/><path class="cls-4" d="M19.28,34.81H34.69A1.88,1.88,0,0,0,36.58,33V17.71Z"/><path class="cls-5" d="M36.59,11.06a1.89,1.89,0,0,0-1.9-1.88H29L10.65,27.36v5.58a1.87,1.87,0,0,0,1.9,1.87h5.57L36.59,16.57Z"/><path class="cls-4" d="M12.55,9.18a1.86,1.86,0,0,0-1.89,1.87V26.19l17.22-17Z"/><path class="cls-6" d="M19.93,34.55a11,11,0,0,1,1.9-.54,2.58,2.58,0,0,0,2.24-2.58c0-.53-.82.15-.82.15A8.15,8.15,0,0,0,21,32.2,2.84,2.84,0,0,0,19.93,34.55Z"/><path class="cls-6" d="M26.72,28s.37,2.3-1.48,3a17.79,17.79,0,0,0-2.15.86A2.47,2.47,0,0,1,24,29.38,9.9,9.9,0,0,1,26,28.56,1.5,1.5,0,0,0,26.72,28Z"/><path class="cls-6" d="M27.68,25.19a2.36,2.36,0,0,1-.14,3c-.28.37-1.67,1.25-2,1.67a2.94,2.94,0,0,1,.14-2.7A8,8,0,0,1,27,25.93,3.19,3.19,0,0,0,27.68,25.19Z"/><path class="cls-6" d="M26.27,22.15s-1.08.62-.36,2.4a14.9,14.9,0,0,1,.94,2.1,2.38,2.38,0,0,0,.89-2.79A3.53,3.53,0,0,0,26.27,22.15Z"/><path class="cls-6" d="M23.51,19.72A2.41,2.41,0,0,0,24,21.9c.37.43,2,.94,2.76,1.46C26.78,23.36,27.66,20.53,23.51,19.72Z"/><path class="cls-6" d="M21.2,17.71s3.61.26,3.12,3.52a10.61,10.61,0,0,0-1.48-.77c-.29-.14-1.72-.59-1.64-1.93A6.67,6.67,0,0,0,21.2,17.71Z"/><path class="cls-6" d="M21.27,14.62a2.3,2.3,0,0,0-.67,2.69,3.85,3.85,0,0,0,1.18,1.4s.42-1.17.67-2c.1-.35.35-1.7-.48-2.22A.51.51,0,0,0,21.27,14.62Z"/><path class="cls-6" d="M21,15.62s-1-3,2.69-3.84a1.75,1.75,0,0,1-.53,2.37C22.78,14.5,21.23,15.27,21,15.62Z"/><path class="cls-6" d="M26.8,9.48s-3.87-.09-3.7,3.33a10.12,10.12,0,0,0,3.07-1.44A2.77,2.77,0,0,0,26.8,9.48Z"/></g></g></svg>