<svg xmlns="http://www.w3.org/2000/svg" viewBox="0 0 170.33 170.33"><defs><style>.cls-1{fill:#fff;stroke:#231f20;}.cls-1,.cls-4{stroke-miterlimit:10;stroke-width:0.25px;}.cls-1,.cls-2,.cls-3,.cls-4,.cls-5{fill-rule:evenodd;}.cls-2{fill:#07402b;}.cls-3{fill:#ae1e40;}.cls-4,.cls-5{fill:#fadb01;}.cls-4{stroke:#af1e40;}</style></defs><g id="Layer_2" data-name="Layer 2"><g id="Layer_1-2" data-name="Layer 1"><path class="cls-1" d="M170.2,8.16a8,8,0,0,0-8-8H8.16a8,8,0,0,0-8,8v154a8,8,0,0,0,8,8h154a8,8,0,0,0,8-8Z"/><path class="cls-2" d="M59.42,162.08H150.8A11.28,11.28,0,0,0,162,150.87l0-91.42Z"/><path class="cls-3" d="M162.07,19.49A11.22,11.22,0,0,0,150.82,8.26H117.19L8.27,117.33v33.49a11.2,11.2,0,0,0,11.22,11.26H52.57L162.05,52.58Z"/><path class="cls-2" d="M19.52,8.24A11.12,11.12,0,0,0,8.28,19.47v90.88L110.35,8.26Z"/><path class="cls-4" d="M63.3,160.53a64.81,64.81,0,0,1,11.24-3.29c2-.46,13.9-3.25,13.29-15.45-.14-3.18-4.88.86-4.88.86S73.57,144,69.66,146.4C67.71,147.55,63.35,152.39,63.3,160.53Z"/><path class="cls-4" d="M103.55,121.43s2.21,13.82-8.77,18.22c-4.68,1.93-11.67,4.11-12.76,5.21,0,0-2.49-9.61,5.62-15.38,2.61-1.88,8-3.68,11.39-4.93A9.23,9.23,0,0,0,103.55,121.43Z"/><path class="cls-4" d="M109.23,104.34s6.85,8.37-.83,18c-1.65,2.22-9.87,7.55-11.94,10,0,0-4.1-8.93.85-16.19,1.35-2.07,6-5.9,8.08-7.41A19,19,0,0,0,109.23,104.34Z"/><path class="cls-4" d="M100.89,86.08s-6.41,3.74-2.15,14.43c.41,1.24,5.38,10.13,5.55,12.6,0,0,8.89-5.51,5.29-16.76C109,94.29,104.88,87.73,100.89,86.08Z"/><path class="cls-5" d="M84.53,71.5a14.59,14.59,0,0,0,3,13.08c2.2,2.58,12.07,5.61,16.33,8.77C103.88,93.35,109.09,76.33,84.53,71.5Z"/><path class="cls-4" d="M70.84,59.45S92.19,61,89.32,80.54a67.69,67.69,0,0,0-8.77-4.61c-1.71-.85-10.23-3.55-9.71-11.56C71,62.17,70.84,59.45,70.84,59.45Z"/><path class="cls-4" d="M71.23,40.86a14,14,0,0,0-4,16.18c.71,1.93,4.82,7.44,7,8.4,0,0,2.48-7,4-12.1.55-2.06,2.07-10.15-2.89-13.31A3,3,0,0,0,71.23,40.86Z"/><path class="cls-4" d="M69.57,46.87s-6.16-18.12,15.92-23c0,0,4.94,7-3.14,14.26C80.16,40.15,71,44.82,69.57,46.87Z"/><path class="cls-4" d="M104,10.05s-22.91-.53-22,20c0,0,14.35-4.41,18.21-8.67A16.61,16.61,0,0,0,104,10.05Z"/></g></g></svg>